<svg width="150" height="150" viewBox="0 0 150 150" fill="none" xmlns="http://www.w3.org/2000/svg">
<g opacity="0.2" clip-path="url(#clip0_2_4)">
<path d="M120.216 116.158C118.994 116.158 117.8 115.773 116.785 115.052C115.769 114.33 114.977 113.305 114.51 112.105C114.042 110.905 113.92 109.585 114.158 108.311C114.397 107.037 114.985 105.867 115.849 104.949C116.712 104.031 117.813 103.405 119.011 103.152C120.209 102.898 121.451 103.028 122.579 103.525C123.708 104.022 124.672 104.864 125.351 105.944C126.029 107.024 126.392 108.293 126.392 109.592C126.39 111.333 125.739 113.002 124.581 114.233C123.423 115.464 121.853 116.156 120.216 116.158Z" fill="#CCCCCC"/>
<path d="M123.066 109.339H120.453V106.183C120.453 106.116 120.428 106.051 120.384 106.004C120.339 105.957 120.279 105.93 120.216 105.93C120.153 105.93 120.092 105.957 120.048 106.004C120.003 106.051 119.978 106.116 119.978 106.183V109.339H117.365C117.302 109.339 117.242 109.366 117.197 109.413C117.153 109.461 117.128 109.525 117.128 109.592C117.128 109.659 117.153 109.723 117.197 109.771C117.242 109.818 117.302 109.844 117.365 109.844H119.978V113.001C119.978 113.068 120.003 113.133 120.048 113.18C120.092 113.227 120.153 113.254 120.216 113.254C120.279 113.254 120.339 113.227 120.384 113.18C120.428 113.133 120.453 113.068 120.453 113.001V109.844H123.066C123.129 109.844 123.19 109.818 123.234 109.771C123.279 109.723 123.304 109.659 123.304 109.592C123.304 109.525 123.279 109.461 123.234 109.413C123.19 109.366 123.129 109.339 123.066 109.339Z" fill="white"/>
<path d="M143.999 146.929L141.284 146.928L139.992 135.792L144 135.792L143.999 146.929Z" fill="#FFB8B8"/>
<path d="M139.344 146.103H144.581V149.609H136.047C136.047 149.149 136.132 148.693 136.298 148.267C136.463 147.842 136.706 147.456 137.012 147.13C137.319 146.804 137.682 146.546 138.082 146.37C138.482 146.194 138.911 146.103 139.344 146.103Z" fill="#2F2E41"/>
<path d="M133.191 146.929L130.476 146.928L129.185 135.792L133.192 135.792L133.191 146.929Z" fill="#FFB8B8"/>
<path d="M128.536 146.103H133.773V149.609H125.239C125.239 149.149 125.324 148.693 125.49 148.267C125.655 147.842 125.898 147.456 126.204 147.13C126.511 146.804 126.874 146.546 127.274 146.37C127.674 146.194 128.103 146.103 128.536 146.103Z" fill="#2F2E41"/>
<path d="M146.091 108.427C145.873 108.17 145.71 107.866 145.614 107.535C145.518 107.204 145.491 106.855 145.536 106.512C145.581 106.169 145.696 105.841 145.873 105.55C146.05 105.26 146.285 105.014 146.561 104.83L145.719 99.493L148.645 98.1585L149.734 105.713C149.993 106.227 150.066 106.824 149.94 107.391C149.813 107.958 149.495 108.456 149.046 108.79C148.597 109.125 148.048 109.273 147.504 109.206C146.959 109.139 146.456 108.862 146.091 108.427Z" fill="#FFB8B8"/>
<path d="M123.184 105.905C123.439 105.69 123.647 105.419 123.793 105.109C123.939 104.8 124.019 104.46 124.029 104.114C124.038 103.768 123.975 103.424 123.846 103.106C123.717 102.789 123.523 102.505 123.28 102.275L124.938 97.1591L122.26 95.329L120.013 102.589C119.677 103.05 119.512 103.626 119.549 104.207C119.586 104.789 119.822 105.336 120.213 105.744C120.604 106.153 121.122 106.395 121.67 106.425C122.217 106.455 122.756 106.27 123.184 105.905Z" fill="#FFB8B8"/>
<path d="M137.091 68.2147C140.314 68.2147 142.926 65.4376 142.926 62.0118C142.926 58.586 140.314 55.8089 137.091 55.8089C133.869 55.8089 131.257 58.586 131.257 62.0118C131.257 65.4376 133.869 68.2147 137.091 68.2147Z" fill="#FFB8B8"/>
<path d="M123.003 102.077C122.903 102.077 122.804 102.062 122.707 102.033L121.007 101.514C120.735 101.431 120.506 101.236 120.369 100.974C120.231 100.711 120.197 100.401 120.274 100.112L123.783 86.9384L128.677 74.1656C129.163 72.8958 130.18 72.0631 131.33 71.9924C131.855 71.9651 132.376 72.1004 132.831 72.3817C133.285 72.6631 133.653 73.0785 133.89 73.5777C134.153 74.1119 134.298 74.7032 134.312 75.306C134.327 75.9089 134.212 76.5074 133.975 77.0554L128.412 89.9886L123.99 101.374C123.91 101.582 123.773 101.76 123.597 101.885C123.421 102.01 123.215 102.077 123.003 102.077Z" fill="#3F3D56"/>
<path d="M140.384 67.2136L137.142 67.2749C136.805 67.282 136.47 67.2046 136.166 67.049C135.861 66.8934 135.596 66.6639 135.39 66.3791C135.184 66.0943 135.045 65.7621 134.982 65.4093C134.919 65.0564 134.935 64.6929 135.029 64.3479C135.098 64.0987 135.15 63.8444 135.185 63.5871C135.221 63.3065 135.228 63.0224 135.206 62.7401C135.186 62.4575 135.075 62.1906 134.893 61.9833C134.711 61.776 134.469 61.6406 134.205 61.5993C133.941 61.5579 133.672 61.6131 133.441 61.7558C133.211 61.8984 133.033 62.1201 132.937 62.3844C132.392 62.3927 131.23 62.2038 130.685 62.212C129.528 59.0577 132.05 54.9302 134.765 53.3799C137.532 51.7994 141.125 53.4073 142.186 56.7014C143.658 56.7295 144.854 58.2734 145.044 60.0114C145.234 61.7493 144.561 63.5641 143.533 64.8961C142.504 66.2282 141.153 67.1991 140.384 67.2136Z" fill="#2F2E41"/>
<path d="M129.728 145.889C129.466 145.887 129.213 145.783 129.017 145.597C128.822 145.41 128.698 145.154 128.669 144.876L127.466 101.883L142.618 103.03L142.629 103.133C146.053 133.607 144.883 144.155 144.871 144.258C144.862 144.414 144.824 144.567 144.757 144.706C144.691 144.845 144.598 144.969 144.485 145.068C144.372 145.168 144.241 145.242 144.1 145.285C143.959 145.328 143.811 145.34 143.665 145.32L140.317 145.405C140.063 145.375 139.828 145.248 139.654 145.049C139.48 144.85 139.379 144.592 139.369 144.32L136.24 113.181C136.221 113.1 136.175 113.029 136.112 112.98C136.048 112.931 135.97 112.908 135.892 112.914C135.812 112.914 135.733 112.943 135.671 112.998C135.609 113.052 135.566 113.127 135.55 113.211L134.341 144.453C134.354 144.743 134.262 145.027 134.083 145.246C133.905 145.466 133.653 145.604 133.382 145.632L129.835 145.883C129.799 145.887 129.764 145.889 129.728 145.889Z" fill="#2F2E41"/>
<path d="M136.016 107.02C135.925 107.02 135.834 107.019 135.744 107.016C131.387 106.876 127.978 103.372 127.037 102.301C126.917 102.164 126.831 101.998 126.786 101.818C126.742 101.637 126.74 101.448 126.78 101.266L129.294 89.9607L128.627 80.1322C128.522 78.7682 128.691 77.396 129.121 76.1061C129.551 74.8161 130.233 73.6377 131.122 72.6483C131.864 71.8159 132.764 71.1626 133.764 70.7327C134.763 70.3028 135.838 70.1064 136.915 70.1568C141.156 70.3719 144.502 74.4025 144.533 79.3325C144.579 86.9684 144.368 87.493 144.299 87.6653C142.182 92.9176 143.338 100.29 143.743 102.425C143.779 102.615 143.769 102.812 143.713 102.997C143.658 103.182 143.558 103.349 143.425 103.482C141.097 105.831 138.605 107.02 136.016 107.02Z" fill="#3F3D56"/>
<path d="M146.958 104.146C146.716 104.146 146.481 104.059 146.292 103.899C146.103 103.738 145.971 103.515 145.917 103.264L143.324 91.2534L139.849 77.5254C139.7 76.9433 139.679 76.3328 139.787 75.7407C139.896 75.1487 140.13 74.5909 140.473 74.1103C140.784 73.6598 141.211 73.3149 141.703 73.1172C142.195 72.9196 142.73 72.8776 143.244 72.9965C144.367 73.2683 145.24 74.2681 145.523 75.606L148.363 89.049L149.779 102.672C149.81 102.971 149.728 103.27 149.551 103.505C149.375 103.74 149.119 103.891 148.838 103.926L147.08 104.139C147.039 104.144 146.998 104.146 146.958 104.146Z" fill="#3F3D56"/>
<path d="M7.32366 105.442C7.63135 105.217 7.88905 104.924 8.07861 104.582C8.26817 104.241 8.38498 103.859 8.4208 103.464C8.45663 103.07 8.4106 102.671 8.28596 102.297C8.16132 101.924 7.9611 101.583 7.69941 101.301L8.68926 77.809L3.64981 78.4104L3.94259 101.389C3.52509 101.887 3.29422 102.532 3.29373 103.2C3.29324 103.867 3.52316 104.512 3.93992 105.012C4.35668 105.511 4.93133 105.831 5.55497 105.91C6.17862 105.99 6.80792 105.823 7.32366 105.442Z" fill="#FFB8B8"/>
<path d="M16.5168 145.208L19.3851 145.744L22.2199 134.237L18.4618 133.446L16.5168 145.208Z" fill="#FFB8B8"/>
<path d="M24.4483 149.609L15.4341 147.925L16.0464 144.222L21.5778 145.256C22.0352 145.341 22.4723 145.522 22.864 145.787C23.2558 146.052 23.5946 146.396 23.8612 146.8C24.1277 147.205 24.3168 147.661 24.4175 148.143C24.5183 148.625 24.5287 149.123 24.4483 149.609Z" fill="#2F2E41"/>
<path d="M8.64443 146.734H11.5566L12.9419 134.792L8.64395 134.792L8.64443 146.734Z" fill="#FFB8B8"/>
<path d="M17.173 149.609L8.02056 149.609L8.0204 145.85L13.6367 145.85C14.5745 145.849 15.474 146.246 16.1372 146.951C16.8004 147.656 17.173 148.612 17.173 149.609Z" fill="#2F2E41"/>
<path d="M21.0326 143.464C20.9872 143.464 20.9418 143.461 20.8966 143.455L17.469 143.156C17.3129 143.136 17.1622 143.083 17.026 143C16.8899 142.916 16.771 142.804 16.6768 142.671C16.5825 142.537 16.5148 142.384 16.4778 142.222C16.4407 142.06 16.4351 141.891 16.4612 141.726L19.6263 122.866L17.4877 110.876C17.4702 110.779 17.4202 110.691 17.3469 110.63C17.2736 110.569 17.182 110.537 17.0888 110.542C16.9957 110.547 16.9073 110.588 16.8401 110.657C16.7729 110.725 16.7313 110.818 16.723 110.916L14.0494 142.896C14.02 143.217 13.8746 143.513 13.6437 143.722C13.4128 143.932 13.1146 144.037 12.8119 144.017L9.58267 143.889C9.29968 143.868 9.03381 143.737 8.83528 143.521C8.63675 143.306 8.5193 143.021 8.5051 142.719L8.28802 104.39L25.0299 102.166L26.1994 121.37L26.1947 121.39L22.1588 142.522C22.0973 142.79 21.953 143.029 21.7488 143.2C21.5446 143.371 21.2924 143.464 21.0326 143.464Z" fill="#2F2E41"/>
<path d="M13.8078 62.5861C17.0299 62.5861 19.6419 59.8089 19.6419 56.3832C19.6419 52.9574 17.0299 50.1803 13.8078 50.1803C10.5857 50.1803 7.97363 52.9574 7.97363 56.3832C7.97363 59.8089 10.5857 62.5861 13.8078 62.5861Z" fill="#FFB8B8"/>
<path d="M19.3049 107.192C18.3925 107.198 17.4976 106.925 16.726 106.407C13.9 104.53 10.6901 105.276 9.02823 105.888C8.86333 105.949 8.6875 105.97 8.51389 105.949C8.34029 105.928 8.1734 105.866 8.02571 105.767C7.87971 105.669 7.75633 105.538 7.66483 105.382C7.57333 105.227 7.51607 105.052 7.49733 104.87L4.47527 76.1734C3.96884 71.3654 6.69288 66.845 10.9523 65.4249C11.1124 65.3715 11.2751 65.3209 11.4405 65.2731C12.766 64.891 14.1542 64.8224 15.5073 65.0721C16.8604 65.3218 18.1457 65.8837 19.2726 66.7183C20.4204 67.5622 21.3804 68.6632 22.0849 69.944C22.7894 71.2247 23.2213 72.6541 23.3503 74.1315L25.8944 103.02C25.9117 103.207 25.888 103.396 25.8251 103.571C25.7621 103.747 25.6617 103.905 25.5317 104.032C24.6398 104.909 22.0514 107.192 19.3049 107.192Z" fill="#6C63FF"/>
<path d="M10.1025 82.3271L3.28445 81.53C3.09046 81.5073 2.90334 81.4405 2.73585 81.334C2.56835 81.2275 2.42442 81.0839 2.31384 80.9129C2.20326 80.7419 2.12864 80.5476 2.09505 80.3432C2.06147 80.1388 2.06972 79.9291 2.11924 79.7284L3.85469 72.6958C3.96945 71.6412 4.47286 70.678 5.25454 70.0174C6.03623 69.3568 7.0324 69.0527 8.02462 69.1718C9.01685 69.291 9.92416 69.8236 10.5476 70.6528C11.1711 71.4821 11.4598 72.5404 11.3505 73.5957L11.6081 80.8376C11.6154 81.045 11.5806 81.2516 11.5061 81.4433C11.4315 81.6351 11.319 81.8075 11.1761 81.9489C11.0332 82.0902 10.8634 82.1972 10.6781 82.2624C10.4928 82.3277 10.2965 82.3497 10.1025 82.3271V82.3271Z" fill="#6C63FF"/>
<path d="M25.8671 104.436C26.1472 104.174 26.3698 103.849 26.5192 103.486C26.6687 103.123 26.7414 102.729 26.7322 102.332C26.723 101.936 26.6321 101.546 26.466 101.191C26.2999 100.836 26.0626 100.524 25.7708 100.277L24.0907 76.8294L19.1527 78.0113L22.0513 100.845C21.6934 101.394 21.5373 102.063 21.6125 102.726C21.6877 103.389 21.989 104 22.4593 104.443C22.9297 104.885 23.5364 105.129 24.1645 105.128C24.7925 105.126 25.3984 104.88 25.8671 104.436Z" fill="#FFB8B8"/>
<path d="M17.2595 80.8531C17.1166 80.7118 17.004 80.5394 16.9295 80.3476C16.8549 80.1559 16.8202 79.9493 16.8276 79.7419L17.0852 72.5C16.9759 71.4447 17.2646 70.3864 17.8881 69.5571C18.5115 68.7278 19.4188 68.1952 20.4111 68.0761C21.4033 67.957 22.3994 68.2611 23.1811 68.9217C23.9628 69.5822 24.4662 70.5454 24.581 71.6L26.3164 78.6327C26.366 78.8334 26.3742 79.0431 26.3406 79.2475C26.307 79.4519 26.2324 79.6462 26.1218 79.8172C26.0113 79.9881 25.8673 80.1318 25.6998 80.2383C25.5323 80.3448 25.3452 80.4116 25.1512 80.4343L18.3331 81.2314C18.1391 81.2541 17.9428 81.2321 17.7575 81.1669C17.5722 81.1016 17.4023 80.9946 17.2595 80.8531Z" fill="#6C63FF"/>
<path d="M13.4608 62.8198C13.3571 62.8196 13.2537 62.8068 13.1528 62.7815L13.1231 62.7739C7.99366 61.9395 6.86009 58.7807 6.61124 57.4614C6.3537 56.0956 6.64696 54.7772 7.30964 54.2652C6.94835 53.0523 7.00634 51.9769 7.4824 51.0674C8.31268 49.4813 10.1146 48.945 10.3562 48.8794C11.7952 47.7507 13.517 48.5042 13.8302 48.657C16.6138 47.562 17.6777 48.4735 17.8701 48.6769C19.1144 48.9146 19.8728 49.4256 20.1246 50.1962C20.5976 51.6435 19.102 53.4439 19.038 53.5199L19.0049 53.5592L16.7768 53.6721C16.5653 53.6828 16.3584 53.7407 16.1693 53.8419C15.9803 53.9431 15.8134 54.0855 15.6794 54.2597C15.5455 54.434 15.4474 54.6362 15.3917 54.8533C15.336 55.0704 15.3238 55.2975 15.356 55.52C15.4163 55.807 15.4925 56.0899 15.5841 56.3674C15.9647 57.6317 16.2498 58.7119 15.8821 59.1225C15.7987 59.202 15.6961 59.2549 15.5858 59.2752C15.4755 59.2955 15.3621 59.2824 15.2585 59.2374C14.9101 59.1385 14.6736 59.1593 14.5557 59.2992C14.3727 59.5163 14.4286 60.0656 14.713 60.8462C14.8022 61.093 14.8262 61.3611 14.7824 61.6214C14.7386 61.8817 14.6287 62.1243 14.4645 62.3229C14.3409 62.4779 14.1872 62.6026 14.0139 62.6884C13.8406 62.7742 13.6519 62.819 13.4608 62.8198Z" fill="#2F2E41"/>
<path d="M33.4926 150H0.237536C0.174538 150 0.114116 149.973 0.0695689 149.926C0.0250223 149.879 0 149.814 0 149.747C0 149.68 0.0250223 149.616 0.0695689 149.569C0.114116 149.522 0.174538 149.495 0.237536 149.495H33.4926C33.5556 149.495 33.616 149.522 33.6606 149.569C33.7051 149.616 33.7301 149.68 33.7301 149.747C33.7301 149.814 33.7051 149.879 33.6606 149.926C33.616 149.973 33.5556 150 33.4926 150Z" fill="#CCCCCC"/>
<path d="M149.41 150H116.155C116.092 150 116.032 149.973 115.987 149.926C115.943 149.879 115.918 149.814 115.918 149.747C115.918 149.68 115.943 149.616 115.987 149.569C116.032 149.522 116.092 149.495 116.155 149.495H149.41C149.473 149.495 149.534 149.522 149.578 149.569C149.623 149.616 149.648 149.68 149.648 149.747C149.648 149.814 149.623 149.879 149.578 149.926C149.534 149.973 149.473 150 149.41 150Z" fill="#CCCCCC"/>
<path d="M101.835 107.081H44.351C42.1468 107.079 40.0336 106.147 38.475 104.489C36.9164 102.832 36.0397 100.586 36.0372 98.2421V8.83926C36.0397 6.49576 36.9164 4.249 38.475 2.5919C40.0336 0.93479 42.1468 0.00265969 44.351 0H101.835C104.039 0.00265969 106.152 0.93479 107.711 2.5919C109.269 4.249 110.146 6.49576 110.149 8.83926V98.2421C110.146 100.586 109.269 102.832 107.711 104.489C106.152 106.147 104.039 107.079 101.835 107.081Z" fill="white"/>
<path d="M92.8085 70.9741H53.3775C49.3496 70.9535 49.3328 64.4301 53.3777 64.4078L92.8085 64.4078C96.8335 64.4278 96.8554 70.9517 92.8085 70.9741Z" fill="#CCCCCC"/>
<path d="M92.8085 18.4287H53.3775C49.3496 18.4081 49.3328 11.8848 53.3777 11.8624L92.8085 11.8624C96.8335 11.8824 96.8554 18.4063 92.8085 18.4287Z" fill="#CCCCCC"/>
<path d="M92.8085 83.0965H53.3775C49.3496 83.0759 49.3328 76.5526 53.3777 76.5302L92.8085 76.5302C96.8335 76.5503 96.8554 83.0741 92.8085 83.0965Z" fill="#CCCCCC"/>
<path d="M92.8085 95.2189H53.3775C49.3496 95.1983 49.3328 88.675 53.3777 88.6526L92.8085 88.6526C96.8335 88.6727 96.8554 95.1965 92.8085 95.2189Z" fill="#CCCCCC"/>
<path d="M92.0958 56.5282H54.09C53.0509 56.5269 52.0547 56.0875 51.3199 55.3063C50.5851 54.5251 50.1718 53.4659 50.1707 52.3611V29.7327C50.1718 28.6279 50.5851 27.5687 51.3199 26.7875C52.0547 26.0063 53.0509 25.5668 54.09 25.5656H92.0958C93.1349 25.5668 94.1311 26.0063 94.8659 26.7875C95.6007 27.5687 96.014 28.6279 96.0151 29.7327V52.3611C96.014 53.4659 95.6007 54.5251 94.8659 55.3063C94.1311 56.0875 93.1349 56.5269 92.0958 56.5282Z" fill="#6C63FF"/>
<path d="M101.835 107.081H44.351C42.1468 107.079 40.0336 106.147 38.475 104.489C36.9164 102.832 36.0397 100.586 36.0372 98.2421V8.83926C36.0397 6.49576 36.9164 4.249 38.475 2.5919C40.0336 0.93479 42.1468 0.00265969 44.351 0H101.835C104.039 0.00265969 106.152 0.93479 107.711 2.5919C109.269 4.249 110.146 6.49576 110.149 8.83926V98.2421C110.146 100.586 109.269 102.832 107.711 104.489C106.152 106.147 104.039 107.079 101.835 107.081ZM44.351 1.5153C42.5247 1.5175 40.7737 2.28983 39.4823 3.66287C38.1909 5.0359 37.4645 6.8975 37.4624 8.83926V98.2421C37.4645 100.184 38.1909 102.045 39.4823 103.418C40.7737 104.792 42.5247 105.564 44.351 105.566H101.835C103.661 105.564 105.412 104.792 106.703 103.418C107.995 102.045 108.721 100.184 108.723 98.2421V8.83926C108.721 6.8975 107.995 5.03589 106.703 3.66286C105.412 2.28982 103.661 1.51749 101.835 1.5153H44.351Z" fill="#E6E6E6"/>
</g>
<defs>
<clipPath id="clip0_2_4">
<rect width="150" height="150" fill="white"/>
</clipPath>
</defs>
</svg>
