<svg width="200" height="150" viewBox="0 0 200 150" fill="none" xmlns="http://www.w3.org/2000/svg">
<g clip-path="url(#clip0_1_39)">
<path d="M98.9717 25.5002C102.323 25.5002 105.039 22.3885 105.039 18.5501C105.039 14.7117 102.323 11.6001 98.9717 11.6001C95.6209 11.6001 92.9045 14.7117 92.9045 18.5501C92.9045 22.3885 95.6209 25.5002 98.9717 25.5002Z" fill="#FD6584"/>
<path d="M112.551 15.2592C112.38 14.6165 112.048 14.0451 111.597 13.6155C111.146 13.1858 110.595 12.9166 110.012 12.841C109.999 12.8397 109.985 12.8397 109.972 12.841C109.955 12.8352 109.939 12.8308 109.922 12.828C107.89 12.5261 105.631 13.2601 104.111 14.8583C103.547 15.4422 103.096 16.1551 102.787 16.9511C102.505 16.5101 102.133 16.1546 101.705 15.9151C101.276 15.6756 100.802 15.5595 100.326 15.5767C99.7107 15.6233 99.1232 15.886 98.6434 16.329C98.1636 16.7719 97.8147 17.3737 97.6443 18.0521C97.6256 18.135 97.6307 18.2226 97.659 18.3019C97.6872 18.3811 97.7371 18.4478 97.8011 18.492C97.9838 18.6711 98.2011 18.7977 98.435 18.8616C98.9372 18.984 99.444 19.0959 99.9507 19.1974C100.941 19.3952 101.937 19.5557 102.939 19.6789C103.6 19.7596 104.263 19.8238 104.927 19.8716C106.3 19.9705 107.679 19.9939 109.054 19.9444C109.735 19.9184 110.39 19.8924 111.012 19.5488C111.466 19.2932 111.854 18.9065 112.137 18.4269C112.404 17.9656 112.579 17.4429 112.651 16.8956C112.722 16.3483 112.688 15.7897 112.551 15.2592Z" fill="#E6E6E6"/>
<path d="M100.069 25.3846C100.057 25.0934 100.015 24.8049 99.9416 24.5256C99.7697 23.883 99.4377 23.3118 98.9864 22.8823C98.5351 22.4527 97.9842 22.1834 97.4012 22.1075C97.3883 22.1062 97.3754 22.1062 97.3625 22.1075C97.3454 22.1019 97.3279 22.0976 97.3103 22.0945C96.1859 21.9367 95.045 22.0711 93.9722 22.4875C92.3225 23.12 90.8751 24.3955 90.1775 26.2175C89.8954 25.7763 89.5236 25.4206 89.0944 25.1811C88.6652 24.9416 88.1915 24.8256 87.7143 24.8432C87.0994 24.8897 86.5119 25.1524 86.0321 25.5954C85.5522 26.0384 85.2033 26.6401 85.033 27.3186C85.0153 27.4015 85.0209 27.4886 85.0491 27.5676C85.0773 27.6466 85.1265 27.7134 85.1898 27.7585C85.3728 27.937 85.59 28.0637 85.8237 28.1281C86.3282 28.2504 86.8326 28.3624 87.3416 28.4639C88.3324 28.6617 89.3276 28.8222 90.3275 28.9454C92.3587 29.1952 94.4026 29.2839 96.4445 29.2109C97.1239 29.1849 97.7806 29.1588 98.4033 28.8153C98.8563 28.5596 99.2432 28.1729 99.5258 27.6934C99.9241 27.0134 100.115 26.2017 100.069 25.3846Z" fill="#E6E6E6"/>
<path d="M179.088 109.717C179.176 114.456 178.605 119.18 177.397 123.714C177.355 123.878 177.304 124.043 177.253 124.208H152.359C152.715 122.2 153.28 120.249 154.042 118.396C156.114 113.359 159.496 109.048 162.836 104.767C167.436 98.8681 171.926 93.0176 172.637 85.3461C174.46 88.5302 175.915 91.9717 176.966 95.5845C175.68 96.1304 174.499 96.9596 173.491 98.0254C173.212 98.3257 172.916 98.7616 173.059 99.1781C173.195 99.5268 173.567 99.6431 173.896 99.7205C174.691 99.8949 175.486 100.069 176.281 100.234C176.907 100.379 177.541 100.515 178.175 100.65C178.733 103.632 179.038 106.668 179.088 109.717Z" fill="#F2F2F2"/>
<path d="M200 106.578C196.009 109.358 193.472 113.659 191.4 118.473C189.597 118.944 187.933 119.946 186.572 121.379C186.284 121.679 185.988 122.115 186.141 122.532C186.268 122.88 186.648 122.997 186.978 123.074C187.764 123.249 188.568 123.423 189.354 123.588C189.278 123.791 189.202 124.004 189.126 124.207H162.743C163.941 122.357 165.267 120.621 166.709 119.016C167.022 118.657 167.343 118.318 167.673 117.97C171.036 114.488 174.898 111.696 179.088 109.717C185.69 106.555 192.91 105.472 200 106.578Z" fill="#F2F2F2"/>
<path d="M167.14 124.208H143.649C143.521 122.053 143.533 119.89 143.683 117.737C144.622 104.438 150.939 91.7681 160.468 84.0965C159.251 89.0656 159.876 94.0056 161.145 98.965C160.967 99.0328 160.79 99.0909 160.629 99.1684C159.343 99.7143 158.162 100.544 157.154 101.609C156.875 101.91 156.579 102.346 156.722 102.762C156.849 103.111 157.23 103.227 157.56 103.304C158.354 103.479 159.149 103.653 159.936 103.818C160.57 103.963 161.204 104.099 161.838 104.244C162.134 104.302 162.43 104.37 162.726 104.438C162.768 104.554 162.794 104.661 162.836 104.767C164.324 109.465 165.948 114.202 166.709 119.016C166.897 120.224 167.027 121.443 167.098 122.667C167.123 123.181 167.14 123.694 167.14 124.208Z" fill="#F2F2F2"/>
<path d="M39.1139 109.717C39.2011 114.456 38.6302 119.18 37.4227 123.714C37.3804 123.878 37.3297 124.043 37.2789 124.208H12.3846C12.7404 122.2 13.3054 120.249 14.0674 118.396C16.139 113.359 19.5214 109.048 22.8615 104.767C27.4616 98.8681 31.9517 93.0176 32.662 85.3461C34.4854 88.5302 35.9406 91.9717 36.9914 95.5845C35.705 96.1304 34.5243 96.9596 33.5161 98.0254C33.237 98.3257 32.941 98.7616 33.0848 99.1781C33.2201 99.5268 33.5921 99.6431 33.9219 99.7205C34.7168 99.8949 35.5116 100.069 36.3065 100.234C36.9322 100.379 37.5664 100.515 38.2006 100.65C38.7581 103.632 39.0639 106.668 39.1139 109.717Z" fill="#F2F2F2"/>
<path d="M60.0255 106.578C56.0342 109.358 53.4974 113.659 51.4258 118.473C49.6229 118.944 47.9586 119.946 46.5974 121.379C46.3099 121.679 46.0139 122.115 46.1661 122.532C46.293 122.88 46.6735 122.997 47.0033 123.074C47.7897 123.249 48.593 123.423 49.3794 123.588C49.3033 123.791 49.2272 124.004 49.1511 124.207H22.7685C23.9662 122.357 25.2924 120.621 26.7344 119.016C27.0472 118.657 27.3686 118.318 27.6984 117.97C31.0615 114.488 34.9231 111.696 39.1139 109.717C45.7159 106.555 52.9353 105.472 60.0255 106.578Z" fill="#F2F2F2"/>
<path d="M27.1656 124.208H3.67496C3.54668 122.053 3.55799 119.89 3.70881 117.737C4.64741 104.438 10.964 91.7681 20.4939 84.0965C19.2762 89.0656 19.9019 94.0056 21.1703 98.965C20.9928 99.0328 20.8152 99.0909 20.6545 99.1684C19.3681 99.7143 18.1874 100.544 17.1792 101.609C16.9001 101.91 16.6042 102.346 16.7479 102.762C16.8747 103.111 17.2552 103.227 17.585 103.304C18.3799 103.479 19.1747 103.653 19.9611 103.818C20.5953 103.963 21.2295 104.099 21.8637 104.244C22.1597 104.302 22.4557 104.37 22.7516 104.438C22.7939 104.554 22.8193 104.661 22.8615 104.767C24.3498 109.465 25.9733 114.202 26.7344 119.016C26.9227 120.224 27.0526 121.443 27.1234 122.667C27.1487 123.181 27.1656 123.694 27.1656 124.208Z" fill="#F2F2F2"/>
<path d="M114.618 112.91L135.607 115.045L135.832 115.068V12.4759C135.757 12.416 135.682 12.3561 135.607 12.2963C131.233 8.79135 126.501 5.91197 121.517 3.72221L120.444 20.6673L120.346 22.2187L119.285 39.0232L118.958 44.1927L114.656 112.312L114.618 112.91Z" fill="#E6E6E6"/>
<path d="M62.7113 10.5653C62.5613 10.6747 62.4114 10.784 62.2614 10.8985V115.068L62.7113 115.021L83.4734 112.91L83.4348 112.312L79.1333 44.1927L78.8061 39.0232L77.7449 22.2187L77.6472 20.6673L76.5224 2.89708C71.6718 4.82309 67.0362 7.3969 62.7113 10.5653Z" fill="#E6E6E6"/>
<path d="M62.2614 10.8985C61.9592 11.1224 61.657 11.3514 61.3593 11.5831V116.489C61.3593 119.11 62.7159 121.307 64.5292 121.867C64.8255 121.959 65.1311 122.005 65.4381 122.005H132.88C133.187 122.005 133.492 121.959 133.787 121.867C134.461 121.653 135.072 121.234 135.555 120.654C136.476 119.526 136.979 118.033 136.959 116.489V13.4077C136.586 13.0928 136.212 12.7804 135.832 12.4759C135.757 12.416 135.682 12.3561 135.607 12.2963V116.489C135.608 116.827 135.573 117.163 135.503 117.491C135.182 119.04 134.126 120.175 132.88 120.175H65.4381C63.9338 120.175 62.7113 118.522 62.7113 116.489V10.5653C62.5613 10.6746 62.4114 10.784 62.2614 10.8985Z" fill="#E6E6E6"/>
<path d="M136.283 20.6684H62.0347V22.2195H136.283V20.6684Z" fill="#E6E6E6"/>
<path d="M113.543 0.8824C113.093 0.754856 112.643 0.63512 112.189 0.523193V42.6413H113.543V0.8824Z" fill="#E6E6E6"/>
<path d="M86.1298 0C85.6776 0.0963087 85.2254 0.195221 84.7755 0.301942V42.6413H86.1298V0Z" fill="#E6E6E6"/>
<path d="M47.4777 119.29C47.4774 120.18 47.6263 121.062 47.9163 121.888C48.0277 122.208 48.1606 122.518 48.3139 122.814C48.512 123.201 48.7417 123.566 49.0002 123.902C49.571 124.648 50.2742 125.245 51.0626 125.653C51.851 126.062 52.7066 126.274 53.5721 126.274H142.49C144.106 126.274 145.656 125.538 146.799 124.229C147.942 122.92 148.584 121.144 148.584 119.293C148.584 117.441 147.942 115.665 146.799 114.356C145.656 113.047 144.106 112.311 142.49 112.311H53.5721C51.9566 112.313 50.4078 113.049 49.2653 114.357C48.1228 115.666 47.4799 117.439 47.4777 119.29Z" fill="#E6E6E6"/>
<path d="M62.0347 44.1933L135.832 44.1933V39.0229L62.0347 39.0229V44.1933Z" fill="#E6E6E6"/>
<path d="M102.093 40.3155H95.7737C95.7737 39.5613 96.0353 38.838 96.5008 38.3047C96.9664 37.7715 97.5978 37.4719 98.2562 37.4719H99.6103C99.9363 37.4719 100.259 37.5454 100.56 37.6883C100.861 37.8312 101.135 38.0407 101.366 38.3047C101.596 38.5688 101.779 38.8823 101.904 39.2273C102.029 39.5723 102.093 39.9421 102.093 40.3155H102.093Z" fill="#E6E6E6"/>
<path d="M3.8147e-06 123.278C1.97402 125.957 4.10914 128.475 6.38975 130.813H189.67C191.951 128.475 194.086 125.957 196.06 123.278H3.8147e-06Z" fill="#3F3D56"/>
<path d="M90.1404 98.0786V124.774H106.467V98.0786C106.467 97.8866 106.414 97.6996 106.314 97.545C106.215 97.3904 106.075 97.2764 105.915 97.2197C105.839 97.1911 105.76 97.177 105.681 97.178H90.9289C90.8255 97.1778 90.723 97.2009 90.6274 97.2461C90.5318 97.2912 90.4449 97.3575 90.3717 97.4411C90.2985 97.5248 90.2404 97.6241 90.2007 97.7335C90.161 97.8429 90.1405 97.9602 90.1404 98.0786ZM96.512 107.251C96.5163 106.725 96.7018 106.222 97.0282 105.852C97.3546 105.481 97.7954 105.274 98.2548 105.274C98.7143 105.274 99.1551 105.481 99.4815 105.852C99.8079 106.222 99.9934 106.725 99.9977 107.251V110.349C99.9954 110.877 99.8107 111.382 99.4841 111.754C99.1575 112.126 98.7155 112.335 98.2548 112.335C97.7941 112.335 97.3522 112.126 97.0256 111.754C96.699 111.382 96.5143 110.877 96.512 110.349V107.251Z" fill="#2F2E41"/>
<path d="M90.0904 123.921V126.495C90.0908 126.628 90.137 126.756 90.2192 126.851C90.3013 126.945 90.4126 126.999 90.529 127H106.078C106.195 126.999 106.307 126.946 106.389 126.851C106.471 126.756 106.517 126.628 106.517 126.495V123.921H90.0904Z" fill="#3F3D56"/>
<path d="M64.4564 57.8581V106.601C64.4569 107.222 64.6725 107.817 65.0559 108.257C65.4393 108.696 65.9593 108.943 66.5015 108.943H129.558C130.1 108.943 130.62 108.696 131.004 108.257C131.387 107.817 131.603 107.222 131.603 106.601V57.8581C131.602 57.2375 131.386 56.6427 131.003 56.2041C130.619 55.7655 130.1 55.5188 129.558 55.518H66.5015C65.9597 55.5188 65.4403 55.7655 65.057 56.2041C64.6737 56.6427 64.4577 57.2375 64.4564 57.8581Z" fill="#3F3D56"/>
<path d="M65.9357 58.4646V105.999C65.9362 106.331 66.0515 106.649 66.2564 106.884C66.4613 107.119 66.739 107.251 67.0287 107.251H129.033C129.323 107.251 129.601 107.119 129.806 106.884C130.011 106.649 130.126 106.331 130.126 105.999V58.4646C130.126 58.1323 130.011 57.8136 129.806 57.5784C129.601 57.3432 129.323 57.2107 129.033 57.2099H67.0287C66.7386 57.2107 66.4606 57.3432 66.2557 57.5784C66.0508 57.8136 65.9358 58.1323 65.9357 58.4646Z" fill="#6C63FF"/>
<path d="M78.5789 127.606C78.642 127.697 78.7222 127.77 78.8135 127.82C78.9048 127.87 79.0048 127.896 79.1061 127.895H115.995C116.096 127.895 116.195 127.869 116.286 127.819C116.377 127.77 116.458 127.697 116.521 127.608C116.585 127.518 116.63 127.413 116.654 127.301C116.677 127.188 116.679 127.071 116.658 126.958L116.086 123.843C116.062 123.715 116.011 123.597 115.937 123.499C115.863 123.4 115.769 123.324 115.663 123.278C115.586 123.243 115.505 123.226 115.422 123.226H79.6764C79.594 123.226 79.5123 123.243 79.4356 123.278C79.3296 123.324 79.2354 123.4 79.1616 123.499C79.0877 123.597 79.0366 123.715 79.0129 123.843L78.4403 126.958C78.4199 127.071 78.4218 127.188 78.4457 127.3C78.4697 127.412 78.5152 127.517 78.5789 127.606Z" fill="#2F2E41"/>
<path d="M114.135 124.568H115.049C115.111 124.568 115.16 124.511 115.16 124.441V123.914C115.16 123.844 115.111 123.787 115.049 123.787H114.135C114.074 123.787 114.024 123.844 114.024 123.914V124.441C114.024 124.511 114.074 124.568 114.135 124.568Z" fill="#3F3D56"/>
<path d="M111.863 124.568H112.777C112.838 124.568 112.888 124.511 112.888 124.441V123.914C112.888 123.844 112.838 123.787 112.777 123.787H111.863C111.801 123.787 111.752 123.844 111.752 123.914V124.441C111.752 124.511 111.801 124.568 111.863 124.568Z" fill="#3F3D56"/>
<path d="M109.59 124.568H110.505C110.566 124.568 110.616 124.511 110.616 124.441V123.914C110.616 123.844 110.566 123.787 110.505 123.787H109.59C109.529 123.787 109.479 123.844 109.479 123.914V124.441C109.479 124.511 109.529 124.568 109.59 124.568Z" fill="#3F3D56"/>
<path d="M107.318 124.568H108.232C108.294 124.568 108.343 124.511 108.343 124.441V123.914C108.343 123.844 108.294 123.787 108.232 123.787H107.318C107.257 123.787 107.207 123.844 107.207 123.914V124.441C107.207 124.511 107.257 124.568 107.318 124.568Z" fill="#3F3D56"/>
<path d="M105.046 124.568H105.96C106.021 124.568 106.071 124.511 106.071 124.441V123.914C106.071 123.844 106.021 123.787 105.96 123.787H105.046C104.984 123.787 104.935 123.844 104.935 123.914V124.441C104.935 124.511 104.984 124.568 105.046 124.568Z" fill="#3F3D56"/>
<path d="M102.773 124.568H103.688C103.749 124.568 103.799 124.511 103.799 124.441V123.914C103.799 123.844 103.749 123.787 103.688 123.787H102.773C102.712 123.787 102.662 123.844 102.662 123.914V124.441C102.662 124.511 102.712 124.568 102.773 124.568Z" fill="#3F3D56"/>
<path d="M100.501 124.568H101.415C101.477 124.568 101.526 124.511 101.526 124.441V123.914C101.526 123.844 101.477 123.787 101.415 123.787H100.501C100.44 123.787 100.39 123.844 100.39 123.914V124.441C100.39 124.511 100.44 124.568 100.501 124.568Z" fill="#3F3D56"/>
<path d="M98.2288 124.568H99.1431C99.2043 124.568 99.254 124.511 99.254 124.441V123.914C99.254 123.844 99.2043 123.787 99.1431 123.787H98.2288C98.1675 123.787 98.1178 123.844 98.1178 123.914V124.441C98.1178 124.511 98.1675 124.568 98.2288 124.568Z" fill="#3F3D56"/>
<path d="M95.9564 124.568H96.8707C96.932 124.568 96.9817 124.511 96.9817 124.441V123.914C96.9817 123.844 96.932 123.787 96.8707 123.787H95.9564C95.8952 123.787 95.8455 123.844 95.8455 123.914V124.441C95.8455 124.511 95.8952 124.568 95.9564 124.568Z" fill="#3F3D56"/>
<path d="M93.6841 124.568H94.5984C94.6597 124.568 94.7094 124.511 94.7094 124.441V123.914C94.7094 123.844 94.6597 123.787 94.5984 123.787H93.6841C93.6229 123.787 93.5732 123.844 93.5732 123.914V124.441C93.5732 124.511 93.6229 124.568 93.6841 124.568Z" fill="#3F3D56"/>
<path d="M91.4118 124.568H92.3261C92.3874 124.568 92.437 124.511 92.437 124.441V123.914C92.437 123.844 92.3874 123.787 92.3261 123.787H91.4118C91.3505 123.787 91.3009 123.844 91.3009 123.914V124.441C91.3009 124.511 91.3505 124.568 91.4118 124.568Z" fill="#3F3D56"/>
<path d="M89.1395 124.568H90.0538C90.1151 124.568 90.1647 124.511 90.1647 124.441V123.914C90.1647 123.844 90.1151 123.787 90.0538 123.787H89.1395C89.0782 123.787 89.0286 123.844 89.0286 123.914V124.441C89.0286 124.511 89.0782 124.568 89.1395 124.568Z" fill="#3F3D56"/>
<path d="M86.8672 124.568H87.7815C87.8427 124.568 87.8924 124.511 87.8924 124.441V123.914C87.8924 123.844 87.8427 123.787 87.7815 123.787H86.8672C86.8059 123.787 86.7563 123.844 86.7563 123.914V124.441C86.7563 124.511 86.8059 124.568 86.8672 124.568Z" fill="#3F3D56"/>
<path d="M84.5949 124.568H85.5092C85.5704 124.568 85.6201 124.511 85.6201 124.441V123.914C85.6201 123.844 85.5704 123.787 85.5092 123.787H84.5949C84.5336 123.787 84.4839 123.844 84.4839 123.914V124.441C84.4839 124.511 84.5336 124.568 84.5949 124.568Z" fill="#3F3D56"/>
<path d="M82.3226 124.568H83.2368C83.2981 124.568 83.3478 124.511 83.3478 124.441V123.914C83.3478 123.844 83.2981 123.787 83.2368 123.787H82.3226C82.2613 123.787 82.2116 123.844 82.2116 123.914V124.441C82.2116 124.511 82.2613 124.568 82.3226 124.568Z" fill="#3F3D56"/>
<path d="M80.0502 124.568H80.9645C81.0258 124.568 81.0755 124.511 81.0755 124.441V123.914C81.0755 123.844 81.0258 123.787 80.9645 123.787H80.0502C79.989 123.787 79.9393 123.844 79.9393 123.914V124.441C79.9393 124.511 79.989 124.568 80.0502 124.568Z" fill="#3F3D56"/>
<path d="M114.162 125.869H115.076C115.137 125.869 115.187 125.812 115.187 125.742V125.215C115.187 125.145 115.137 125.088 115.076 125.088H114.162C114.101 125.088 114.051 125.145 114.051 125.215V125.742C114.051 125.812 114.101 125.869 114.162 125.869Z" fill="#3F3D56"/>
<path d="M111.889 125.869H112.804C112.865 125.869 112.915 125.812 112.915 125.742V125.215C112.915 125.145 112.865 125.088 112.804 125.088H111.889C111.828 125.088 111.779 125.145 111.779 125.215V125.742C111.779 125.812 111.828 125.869 111.889 125.869Z" fill="#3F3D56"/>
<path d="M109.617 125.869H110.531C110.593 125.869 110.642 125.812 110.642 125.742V125.215C110.642 125.145 110.593 125.088 110.531 125.088H109.617C109.556 125.088 109.506 125.145 109.506 125.215V125.742C109.506 125.812 109.556 125.869 109.617 125.869Z" fill="#3F3D56"/>
<path d="M107.345 125.869H108.259C108.32 125.869 108.37 125.812 108.37 125.742V125.215C108.37 125.145 108.32 125.088 108.259 125.088H107.345C107.284 125.088 107.234 125.145 107.234 125.215V125.742C107.234 125.812 107.284 125.869 107.345 125.869Z" fill="#3F3D56"/>
<path d="M105.073 125.869H105.987C106.048 125.869 106.098 125.812 106.098 125.742V125.215C106.098 125.145 106.048 125.088 105.987 125.088H105.073C105.011 125.088 104.962 125.145 104.962 125.215V125.742C104.962 125.812 105.011 125.869 105.073 125.869Z" fill="#3F3D56"/>
<path d="M102.8 125.869H103.715C103.776 125.869 103.825 125.812 103.825 125.742V125.215C103.825 125.145 103.776 125.088 103.715 125.088H102.8C102.739 125.088 102.689 125.145 102.689 125.215V125.742C102.689 125.812 102.739 125.869 102.8 125.869Z" fill="#3F3D56"/>
<path d="M100.528 125.869H101.442C101.503 125.869 101.553 125.812 101.553 125.742V125.215C101.553 125.145 101.503 125.088 101.442 125.088H100.528C100.467 125.088 100.417 125.145 100.417 125.215V125.742C100.417 125.812 100.467 125.869 100.528 125.869Z" fill="#3F3D56"/>
<path d="M98.2556 125.869H99.1699C99.2312 125.869 99.2808 125.812 99.2808 125.742V125.215C99.2808 125.145 99.2312 125.088 99.1699 125.088H98.2556C98.1943 125.088 98.1447 125.145 98.1447 125.215V125.742C98.1447 125.812 98.1943 125.869 98.2556 125.869Z" fill="#3F3D56"/>
<path d="M95.9833 125.869H96.8976C96.9588 125.869 97.0085 125.812 97.0085 125.742V125.215C97.0085 125.145 96.9588 125.088 96.8976 125.088H95.9833C95.922 125.088 95.8724 125.145 95.8724 125.215V125.742C95.8724 125.812 95.922 125.869 95.9833 125.869Z" fill="#3F3D56"/>
<path d="M93.711 125.869H94.6253C94.6865 125.869 94.7362 125.812 94.7362 125.742V125.215C94.7362 125.145 94.6865 125.088 94.6253 125.088H93.711C93.6497 125.088 93.6 125.145 93.6 125.215V125.742C93.6 125.812 93.6497 125.869 93.711 125.869Z" fill="#3F3D56"/>
<path d="M91.4387 125.869H92.353C92.4142 125.869 92.4639 125.812 92.4639 125.742V125.215C92.4639 125.145 92.4142 125.088 92.353 125.088H91.4387C91.3774 125.088 91.3277 125.145 91.3277 125.215V125.742C91.3277 125.812 91.3774 125.869 91.4387 125.869Z" fill="#3F3D56"/>
<path d="M89.1663 125.869H90.0806C90.1419 125.869 90.1916 125.812 90.1916 125.742V125.215C90.1916 125.145 90.1419 125.088 90.0806 125.088H89.1663C89.1051 125.088 89.0554 125.145 89.0554 125.215V125.742C89.0554 125.812 89.1051 125.869 89.1663 125.869Z" fill="#3F3D56"/>
<path d="M86.894 125.869H87.8083C87.8696 125.869 87.9193 125.812 87.9193 125.742V125.215C87.9193 125.145 87.8696 125.088 87.8083 125.088H86.894C86.8328 125.088 86.7831 125.145 86.7831 125.215V125.742C86.7831 125.812 86.8328 125.869 86.894 125.869Z" fill="#3F3D56"/>
<path d="M84.6217 125.869H85.536C85.5973 125.869 85.6469 125.812 85.6469 125.742V125.215C85.6469 125.145 85.5973 125.088 85.536 125.088H84.6217C84.5605 125.088 84.5108 125.145 84.5108 125.215V125.742C84.5108 125.812 84.5605 125.869 84.6217 125.869Z" fill="#3F3D56"/>
<path d="M82.3494 125.869H83.2637C83.325 125.869 83.3746 125.812 83.3746 125.742V125.215C83.3746 125.145 83.325 125.088 83.2637 125.088H82.3494C82.2881 125.088 82.2385 125.145 82.2385 125.215V125.742C82.2385 125.812 82.2881 125.869 82.3494 125.869Z" fill="#3F3D56"/>
<path d="M80.0771 125.869H80.9914C81.0527 125.869 81.1023 125.812 81.1023 125.742V125.215C81.1023 125.145 81.0527 125.088 80.9914 125.088H80.0771C80.0158 125.088 79.9662 125.145 79.9662 125.215V125.742C79.9662 125.812 80.0158 125.869 80.0771 125.869Z" fill="#3F3D56"/>
<path d="M95.3016 127.431H104.169C104.23 127.431 104.28 127.374 104.28 127.304V126.777C104.28 126.707 104.23 126.65 104.169 126.65H95.3016C95.2403 126.65 95.1907 126.707 95.1907 126.777V127.304C95.1907 127.374 95.2403 127.431 95.3016 127.431Z" fill="#3F3D56"/>
<path d="M70.1445 63.7581H128.162C128.222 63.7566 128.28 63.728 128.322 63.6786C128.364 63.6292 128.388 63.5629 128.388 63.4938C128.388 63.4247 128.364 63.3583 128.322 63.3089C128.28 63.2595 128.222 63.231 128.162 63.2295H70.1445C70.0842 63.231 70.0268 63.2595 69.9846 63.3089C69.9424 63.3583 69.9188 63.4247 69.9188 63.4938C69.9188 63.5629 69.9424 63.6292 69.9846 63.6786C70.0268 63.728 70.0842 63.7566 70.1445 63.7581Z" fill="#3F3D56"/>
<path d="M124.213 61.8801C124.959 61.8801 125.565 61.1712 125.565 60.2967C125.565 59.4222 124.959 58.7133 124.213 58.7133C123.466 58.7133 122.861 59.4222 122.861 60.2967C122.861 61.1712 123.466 61.8801 124.213 61.8801Z" fill="#3F3D56"/>
<path d="M119.542 61.8801C120.288 61.8801 120.894 61.1712 120.894 60.2967C120.894 59.4222 120.288 58.7133 119.542 58.7133C118.795 58.7133 118.19 59.4222 118.19 60.2967C118.19 61.1712 118.795 61.8801 119.542 61.8801Z" fill="#3F3D56"/>
<path d="M114.871 61.8801C115.617 61.8801 116.223 61.1712 116.223 60.2967C116.223 59.4222 115.617 58.7133 114.871 58.7133C114.124 58.7133 113.519 59.4222 113.519 60.2967C113.519 61.1712 114.124 61.8801 114.871 61.8801Z" fill="#3F3D56"/>
<path d="M72.7095 59.3938C72.7093 59.4312 72.7156 59.4683 72.728 59.503C72.7403 59.5376 72.7585 59.5692 72.7815 59.5957C72.8045 59.6223 72.8319 59.6435 72.862 59.6579C72.8922 59.6724 72.9245 59.68 72.9572 59.6801H76.2747C76.3403 59.6784 76.4027 59.6473 76.4485 59.5936C76.4944 59.5398 76.5201 59.4676 76.5201 59.3925C76.5201 59.3174 76.4944 59.2452 76.4485 59.1915C76.4027 59.1377 76.3403 59.1066 76.2747 59.1049H72.9572C72.8909 59.1058 72.8277 59.1367 72.7813 59.1908C72.7349 59.245 72.7091 59.3179 72.7095 59.3938Z" fill="#3F3D56"/>
<path d="M72.7095 60.474C72.7093 60.5115 72.7156 60.5486 72.728 60.5832C72.7403 60.6179 72.7585 60.6494 72.7815 60.676C72.8045 60.7026 72.8319 60.7237 72.862 60.7382C72.8922 60.7527 72.9245 60.7602 72.9572 60.7604H76.2747C76.3404 60.7587 76.4028 60.7277 76.4487 60.6739C76.4946 60.6201 76.5203 60.5479 76.5203 60.4727C76.5203 60.3975 76.4946 60.3253 76.4487 60.2716C76.4028 60.2178 76.3404 60.1868 76.2747 60.1851H72.9572C72.8909 60.186 72.8277 60.2169 72.7813 60.2711C72.7349 60.3252 72.7091 60.3982 72.7095 60.474Z" fill="#3F3D56"/>
<path d="M72.7095 61.5517C72.7091 61.6275 72.7349 61.7005 72.7813 61.7546C72.8277 61.8088 72.8909 61.8397 72.9572 61.8406H76.2747C76.3403 61.8388 76.4027 61.8078 76.4485 61.754C76.4944 61.7003 76.5201 61.6281 76.5201 61.553C76.5201 61.4778 76.4944 61.4056 76.4485 61.3519C76.4027 61.2981 76.3403 61.2671 76.2747 61.2653H72.9572C72.9245 61.2655 72.8922 61.273 72.862 61.2875C72.8319 61.302 72.8045 61.3231 72.7815 61.3497C72.7585 61.3763 72.7403 61.4078 72.728 61.4425C72.7156 61.4771 72.7093 61.5142 72.7095 61.5517Z" fill="#3F3D56"/>
<path d="M73.7348 69.9001H72.5427C72.1813 69.9001 71.8883 70.2357 71.8883 70.6497C71.8883 71.0638 72.1813 71.3994 72.5427 71.3994H73.7348C74.0962 71.3994 74.3892 71.0638 74.3892 70.6497C74.3892 70.2357 74.0962 69.9001 73.7348 69.9001Z" fill="#E6E6E6"/>
<path d="M87.3687 69.9001H86.1766C85.8152 69.9001 85.5222 70.2357 85.5222 70.6497C85.5222 71.0638 85.8152 71.3994 86.1766 71.3994H87.3687C87.7301 71.3994 88.0231 71.0638 88.0231 70.6497C88.0231 70.2357 87.7301 69.9001 87.3687 69.9001Z" fill="#E6E6E6"/>
<path d="M91.2316 69.9001H90.0395C89.6781 69.9001 89.3851 70.2357 89.3851 70.6497C89.3851 71.0638 89.6781 71.3994 90.0395 71.3994H91.2316C91.593 71.3994 91.886 71.0638 91.886 70.6497C91.886 70.2357 91.593 69.9001 91.2316 69.9001Z" fill="#E6E6E6"/>
<path d="M83.6602 69.7751H76.2512C75.8897 69.7751 75.5967 70.1108 75.5967 70.5248C75.5967 70.9388 75.8897 71.2744 76.2512 71.2744H83.6602C84.0216 71.2744 84.3146 70.9388 84.3146 70.5248C84.3146 70.1108 84.0216 69.7751 83.6602 69.7751Z" fill="#E6E6E6"/>
<path d="M101.839 69.7751H94.4297C94.0682 69.7751 93.7752 70.1108 93.7752 70.5248C93.7752 70.9388 94.0682 71.2744 94.4297 71.2744H101.839C102.2 71.2744 102.493 70.9388 102.493 70.5248C102.493 70.1108 102.2 69.7751 101.839 69.7751Z" fill="#E6E6E6"/>
<path d="M77.3705 73.2839H76.1784C75.817 73.2839 75.524 73.6195 75.524 74.0336C75.524 74.4476 75.817 74.7832 76.1784 74.7832H77.3705C77.7319 74.7832 78.0249 74.4476 78.0249 74.0336C78.0249 73.6195 77.7319 73.2839 77.3705 73.2839Z" fill="#E6E6E6"/>
<path d="M91.0044 73.2839H89.8123C89.4509 73.2839 89.1579 73.6195 89.1579 74.0336C89.1579 74.4476 89.4509 74.7832 89.8123 74.7832H91.0044C91.3658 74.7832 91.6588 74.4476 91.6588 74.0336C91.6588 73.6195 91.3658 73.2839 91.0044 73.2839Z" fill="#E6E6E6"/>
<path d="M94.8673 73.2839H93.6752C93.3138 73.2839 93.0208 73.6195 93.0208 74.0336C93.0208 74.4476 93.3138 74.7832 93.6752 74.7832H94.8673C95.2287 74.7832 95.5217 74.4476 95.5217 74.0336C95.5217 73.6195 95.2287 73.2839 94.8673 73.2839Z" fill="#E6E6E6"/>
<path d="M87.2959 73.159H79.8869C79.5254 73.159 79.2324 73.4946 79.2324 73.9086C79.2324 74.3226 79.5254 74.6582 79.8869 74.6582H87.2959C87.6573 74.6582 87.9503 74.3226 87.9503 73.9086C87.9503 73.4946 87.6573 73.159 87.2959 73.159Z" fill="#E6E6E6"/>
<path d="M105.474 73.159H98.0654C97.7039 73.159 97.4109 73.4946 97.4109 73.9086C97.4109 74.3226 97.7039 74.6582 98.0654 74.6582H105.474C105.836 74.6582 106.129 74.3226 106.129 73.9086C106.129 73.4946 105.836 73.159 105.474 73.159Z" fill="#E6E6E6"/>
<path d="M81.0062 76.6678H79.8141C79.4527 76.6678 79.1597 77.0034 79.1597 77.4174C79.1597 77.8314 79.4527 78.167 79.8141 78.167H81.0062C81.3676 78.167 81.6606 77.8314 81.6606 77.4174C81.6606 77.0034 81.3676 76.6678 81.0062 76.6678Z" fill="#E6E6E6"/>
<path d="M94.6401 76.6678H93.448C93.0865 76.6678 92.7936 77.0034 92.7936 77.4174C92.7936 77.8314 93.0865 78.167 93.448 78.167H94.6401C95.0015 78.167 95.2945 77.8314 95.2945 77.4174C95.2945 77.0034 95.0015 76.6678 94.6401 76.6678Z" fill="#E6E6E6"/>
<path d="M98.503 76.6678H97.3109C96.9495 76.6678 96.6565 77.0034 96.6565 77.4174C96.6565 77.8314 96.9495 78.167 97.3109 78.167H98.503C98.8644 78.167 99.1574 77.8314 99.1574 77.4174C99.1574 77.0034 98.8644 76.6678 98.503 76.6678Z" fill="#E6E6E6"/>
<path d="M90.9316 76.5428H83.5226C83.1611 76.5428 82.8681 76.8784 82.8681 77.2924C82.8681 77.7064 83.1611 78.042 83.5226 78.042H90.9316C91.293 78.042 91.586 77.7064 91.586 77.2924C91.586 76.8784 91.293 76.5428 90.9316 76.5428Z" fill="#E6E6E6"/>
<path d="M109.11 76.5428H101.701C101.34 76.5428 101.047 76.8784 101.047 77.2924C101.047 77.7064 101.34 78.042 101.701 78.042H109.11C109.472 78.042 109.765 77.7064 109.765 77.2924C109.765 76.8784 109.472 76.5428 109.11 76.5428Z" fill="#E6E6E6"/>
<path d="M84.6419 80.0516H83.4498C83.0884 80.0516 82.7954 80.3872 82.7954 80.8012C82.7954 81.2152 83.0884 81.5508 83.4498 81.5508H84.6419C85.0033 81.5508 85.2963 81.2152 85.2963 80.8012C85.2963 80.3872 85.0033 80.0516 84.6419 80.0516Z" fill="#E6E6E6"/>
<path d="M98.2758 80.0516H97.0837C96.7223 80.0516 96.4293 80.3872 96.4293 80.8012C96.4293 81.2152 96.7223 81.5508 97.0837 81.5508H98.2758C98.6372 81.5508 98.9302 81.2152 98.9302 80.8012C98.9302 80.3872 98.6372 80.0516 98.2758 80.0516Z" fill="#E6E6E6"/>
<path d="M102.139 80.0516H100.947C100.585 80.0516 100.292 80.3872 100.292 80.8012C100.292 81.2152 100.585 81.5508 100.947 81.5508H102.139C102.5 81.5508 102.793 81.2152 102.793 80.8012C102.793 80.3872 102.5 80.0516 102.139 80.0516Z" fill="#E6E6E6"/>
<path d="M94.5673 79.9266H87.1583C86.7968 79.9266 86.5038 80.2622 86.5038 80.6762C86.5038 81.0902 86.7968 81.4259 87.1583 81.4259H94.5673C94.9287 81.4259 95.2217 81.0902 95.2217 80.6762C95.2217 80.2622 94.9287 79.9266 94.5673 79.9266Z" fill="#E6E6E6"/>
<path d="M87.3687 93.5071H86.1766C85.8152 93.5071 85.5222 93.8427 85.5222 94.2567C85.5222 94.6707 85.8152 95.0063 86.1766 95.0063H87.3687C87.7301 95.0063 88.0231 94.6707 88.0231 94.2567C88.0231 93.8427 87.7301 93.5071 87.3687 93.5071Z" fill="#E6E6E6"/>
<path d="M91.2316 93.5071H90.0395C89.6781 93.5071 89.3851 93.8427 89.3851 94.2567C89.3851 94.6707 89.6781 95.0063 90.0395 95.0063H91.2316C91.593 95.0063 91.886 94.6707 91.886 94.2567C91.886 93.8427 91.593 93.5071 91.2316 93.5071Z" fill="#E6E6E6"/>
<path d="M101.839 93.632H94.4297C94.0682 93.632 93.7752 93.9677 93.7752 94.3817C93.7752 94.7957 94.0682 95.1313 94.4297 95.1313H101.839C102.2 95.1313 102.493 94.7957 102.493 94.3817C102.493 93.9677 102.2 93.632 101.839 93.632Z" fill="#E6E6E6"/>
<path d="M73.7348 93.5071H72.5427C72.1813 93.5071 71.8883 93.8427 71.8883 94.2567C71.8883 94.6707 72.1813 95.0063 72.5427 95.0063H73.7348C74.0962 95.0063 74.3892 94.6707 74.3892 94.2567C74.3892 93.8427 74.0962 93.5071 73.7348 93.5071Z" fill="#E6E6E6"/>
<path d="M83.6602 93.632H76.2512C75.8897 93.632 75.5967 93.9677 75.5967 94.3817C75.5967 94.7957 75.8897 95.1313 76.2512 95.1313H83.6602C84.0216 95.1313 84.3146 94.7957 84.3146 94.3817C84.3146 93.9677 84.0216 93.632 83.6602 93.632Z" fill="#E6E6E6"/>
<path d="M77.3705 90.1233H76.1784C75.817 90.1233 75.524 90.4589 75.524 90.8729C75.524 91.2869 75.817 91.6225 76.1784 91.6225H77.3705C77.7319 91.6225 78.0249 91.2869 78.0249 90.8729C78.0249 90.4589 77.7319 90.1233 77.3705 90.1233Z" fill="#E6E6E6"/>
<path d="M91.0044 90.1233H89.8123C89.4509 90.1233 89.1579 90.4589 89.1579 90.8729C89.1579 91.2869 89.4509 91.6225 89.8123 91.6225H91.0044C91.3658 91.6225 91.6588 91.2869 91.6588 90.8729C91.6588 90.4589 91.3658 90.1233 91.0044 90.1233Z" fill="#E6E6E6"/>
<path d="M94.8673 90.1233H93.6752C93.3138 90.1233 93.0208 90.4589 93.0208 90.8729C93.0208 91.2869 93.3138 91.6225 93.6752 91.6225H94.8673C95.2287 91.6225 95.5217 91.2869 95.5217 90.8729C95.5217 90.4589 95.2287 90.1233 94.8673 90.1233Z" fill="#E6E6E6"/>
<path d="M87.2959 90.2482H79.8869C79.5254 90.2482 79.2324 90.5839 79.2324 90.9979C79.2324 91.4119 79.5254 91.7475 79.8869 91.7475H87.2959C87.6573 91.7475 87.9503 91.4119 87.9503 90.9979C87.9503 90.5839 87.6573 90.2482 87.2959 90.2482Z" fill="#E6E6E6"/>
<path d="M81.0062 86.7394H79.8141C79.4527 86.7394 79.1597 87.0751 79.1597 87.4891C79.1597 87.9031 79.4527 88.2387 79.8141 88.2387H81.0062C81.3676 88.2387 81.6606 87.9031 81.6606 87.4891C81.6606 87.0751 81.3676 86.7394 81.0062 86.7394Z" fill="#E6E6E6"/>
<path d="M94.6401 86.7394H93.448C93.0865 86.7394 92.7936 87.0751 92.7936 87.4891C92.7936 87.9031 93.0865 88.2387 93.448 88.2387H94.6401C95.0015 88.2387 95.2945 87.9031 95.2945 87.4891C95.2945 87.0751 95.0015 86.7394 94.6401 86.7394Z" fill="#E6E6E6"/>
<path d="M98.503 86.7394H97.3109C96.9495 86.7394 96.6565 87.0751 96.6565 87.4891C96.6565 87.9031 96.9495 88.2387 97.3109 88.2387H98.503C98.8644 88.2387 99.1574 87.9031 99.1574 87.4891C99.1574 87.0751 98.8644 86.7394 98.503 86.7394Z" fill="#E6E6E6"/>
<path d="M90.9316 86.8644H83.5226C83.1611 86.8644 82.8681 87.2 82.8681 87.614C82.8681 88.0281 83.1611 88.3637 83.5226 88.3637H90.9316C91.293 88.3637 91.586 88.0281 91.586 87.614C91.586 87.2 91.293 86.8644 90.9316 86.8644Z" fill="#E6E6E6"/>
<path d="M84.6419 83.3556H83.4498C83.0884 83.3556 82.7954 83.6912 82.7954 84.1053C82.7954 84.5193 83.0884 84.8549 83.4498 84.8549H84.6419C85.0033 84.8549 85.2963 84.5193 85.2963 84.1053C85.2963 83.6912 85.0033 83.3556 84.6419 83.3556Z" fill="#E6E6E6"/>
<path d="M98.2758 83.3556H97.0837C96.7223 83.3556 96.4293 83.6912 96.4293 84.1053C96.4293 84.5193 96.7223 84.8549 97.0837 84.8549H98.2758C98.6372 84.8549 98.9302 84.5193 98.9302 84.1053C98.9302 83.6912 98.6372 83.3556 98.2758 83.3556Z" fill="#E6E6E6"/>
<path d="M102.139 83.3556H100.947C100.585 83.3556 100.292 83.6912 100.292 84.1053C100.292 84.5193 100.585 84.8549 100.947 84.8549H102.139C102.5 84.8549 102.793 84.5193 102.793 84.1053C102.793 83.6912 102.5 83.3556 102.139 83.3556Z" fill="#E6E6E6"/>
<path d="M94.5673 83.4806H87.1583C86.7968 83.4806 86.5038 83.8162 86.5038 84.2302C86.5038 84.6442 86.7968 84.9799 87.1583 84.9799H94.5673C94.9287 84.9799 95.2217 84.6442 95.2217 84.2302C95.2217 83.8162 94.9287 83.4806 94.5673 83.4806Z" fill="#E6E6E6"/>
<path d="M79.511 142.108C79.461 142.137 79.411 142.165 79.361 142.191C79.0452 142.371 78.727 142.548 78.4066 142.722C77.4477 143.245 76.4767 143.743 75.4935 144.214C72.9066 145.453 70.2523 146.499 67.5472 147.345C67.0928 144.099 66.6519 136.444 66.2293 130.814C66.1498 129.754 66.0702 128.768 65.9907 127.896C65.9152 126.751 65.7717 125.614 65.5612 124.491C65.5406 124.403 65.5109 124.319 65.4726 124.239C65.5158 124.689 65.5612 126.032 65.6044 127.896C65.6271 128.768 65.6476 129.754 65.6703 130.814C65.7771 136.233 65.8884 143.607 65.9998 147.806C65.6839 147.894 65.3658 147.983 65.0477 148.066C64.8477 148.121 64.6455 148.173 64.4433 148.222C64.1979 148.285 63.9524 148.347 63.707 148.404C63.4503 148.467 63.1935 148.527 62.9367 148.584C58.7407 149.528 54.4744 150.002 50.1981 150C49.9141 150 49.6323 149.997 49.3483 149.995C49.2619 149.995 49.1756 149.992 49.087 149.99C48.837 149.984 48.578 149.979 48.3144 149.971C43.261 149.811 38.2406 148.982 33.3535 147.501L33.5512 130.814L33.5852 127.896L33.5989 126.79C33.4863 127.145 33.419 127.518 33.3989 127.896C33.3194 128.606 33.2376 129.614 33.1558 130.814C32.8445 135.437 32.5241 142.894 32.1923 147.137C28.2635 145.856 25.3913 144.687 21.801 142.631C21.6624 142.553 21.5215 142.472 21.3829 142.392C21.4079 142.191 21.4352 141.991 21.4602 141.785C21.8669 138.547 21.3875 134.333 21.8374 130.814C22.1805 128.099 22.535 125.491 22.8917 123.278C23.3235 120.615 23.762 118.523 24.196 117.505C24.6959 116.331 25.1959 115.175 25.6799 114.069C25.8889 113.593 26.0942 113.125 26.2957 112.666C26.4047 112.419 26.5138 112.174 26.6206 111.935C27.1069 110.844 27.5659 109.837 27.9863 108.944C28.2817 108.317 28.5543 107.749 28.8043 107.252C29.0974 106.666 29.3565 106.182 29.5701 105.815C31.1477 103.076 33.4952 101.036 36.2234 100.034L36.2916 100.013L36.3575 100.044L36.4324 100.083L40.7635 98.2692L42.6972 92.9358L52.6295 92.2356L54.2337 93.6334L55.054 94.3492L55.9289 95.1119L57.5377 96.5148L57.9944 96.6762L58.6738 96.9157L63.3207 98.5503L63.3684 98.5269L63.4366 98.5477C65.9193 99.4581 68.0924 101.232 69.6537 103.623C69.8082 103.853 69.9513 104.089 70.09 104.329C70.4672 104.969 70.9762 105.982 71.576 107.252C71.8237 107.775 72.085 108.343 72.36 108.944C72.5259 109.306 73.9574 114.423 75.3504 119.65C76.6524 124.543 77.9203 129.533 78.0862 130.814C78.1158 131.051 78.1476 131.29 78.1771 131.527C78.3657 133.008 78.552 134.499 78.7316 135.955C78.9974 138.112 79.2565 140.195 79.5041 142.056C79.5064 142.074 79.5087 142.09 79.511 142.108Z" fill="#3F3D56"/>
<path opacity="0.2" d="M68.9852 123.266L67.0544 114.731L65.3495 122.096L68.9852 123.266Z" fill="black"/>
<path d="M3.59691 123.167C3.69703 123.501 3.88693 123.79 4.13936 123.993C4.39179 124.195 4.69376 124.301 5.00191 124.295L11.0217 124.117C11.3321 124.11 11.6322 123.988 11.8772 123.77C12.1221 123.551 12.2988 123.248 12.3807 122.905L13.2326 112.47C13.5348 112.627 13.8638 112.705 14.1956 112.697C14.7776 112.68 15.3301 112.399 15.7313 111.916C16.1325 111.433 16.3498 110.787 16.3351 110.12C16.3205 109.453 16.0753 108.821 15.6534 108.361C15.2315 107.901 14.6675 107.652 14.0854 107.669C13.9528 107.669 13.8205 107.684 13.6909 107.716C13.5499 107.541 13.3785 107.402 13.1877 107.308C12.997 107.214 12.7911 107.166 12.5833 107.169L3.32354 107.443C3.24673 107.446 3.1703 107.457 3.09513 107.475C2.89206 107.519 2.69946 107.611 2.53029 107.747C2.36112 107.883 2.21929 108.058 2.11438 108.262C2.00946 108.466 1.94387 108.693 1.92204 108.929C1.9002 109.164 1.92263 109.402 1.98779 109.626L3.59691 123.167ZM13.4073 111.762L14.0134 109.275C14.0824 108.988 14.084 108.685 14.0181 108.397C14.0475 108.397 14.0734 108.381 14.1028 108.381C14.5185 108.371 14.9206 108.55 15.2209 108.88C15.5213 109.209 15.6954 109.661 15.7052 110.137C15.7149 110.613 15.5594 111.074 15.2728 111.419C14.9863 111.764 14.592 111.965 14.1764 111.977C13.9077 111.987 13.6418 111.913 13.4073 111.762Z" fill="#2F2E41"/>
<path d="M3.09513 107.475C3.29241 108.767 5.5104 109.676 8.17736 109.518C10.6298 109.388 12.6351 108.402 13.0024 107.233C12.8665 107.187 12.7251 107.165 12.5833 107.169L3.32354 107.443C3.24673 107.446 3.17031 107.457 3.09513 107.475Z" fill="#3F3D56"/>
<path d="M8.66613 117.433C8.67833 117.43 8.68992 117.424 8.70043 117.416L10.0077 116.436C10.0235 116.424 10.0365 116.408 10.0455 116.389C10.0545 116.37 10.0592 116.349 10.0592 116.327C10.0592 116.306 10.0545 116.284 10.0455 116.265C10.0366 116.246 10.0236 116.23 10.0078 116.218L8.649 115.199C8.63653 115.189 8.62255 115.183 8.60787 115.18C8.59319 115.176 8.57809 115.176 8.56345 115.18C8.5488 115.183 8.53489 115.19 8.52252 115.2C8.51016 115.209 8.49957 115.222 8.49137 115.236C8.48317 115.25 8.47753 115.266 8.47476 115.283C8.47198 115.3 8.47214 115.317 8.47522 115.334C8.47829 115.351 8.48423 115.367 8.49269 115.381C8.50114 115.395 8.51196 115.407 8.5245 115.416L9.73812 116.327L8.57606 117.198C8.55356 117.215 8.537 117.241 8.52934 117.27C8.52168 117.3 8.5234 117.331 8.53421 117.36C8.54501 117.388 8.5642 117.411 8.58835 117.424C8.61251 117.438 8.64006 117.441 8.66612 117.433H8.66613Z" fill="#6C63FF"/>
<path d="M6.60134 117.543C6.62328 117.536 6.64306 117.522 6.65815 117.503C6.67323 117.484 6.68294 117.46 6.68601 117.434C6.68909 117.408 6.6854 117.382 6.67542 117.359C6.66544 117.336 6.64962 117.316 6.62999 117.303L5.42497 116.512L6.58966 115.521C6.60163 115.511 6.61173 115.498 6.61938 115.483C6.62704 115.469 6.63209 115.453 6.63427 115.436C6.63644 115.419 6.63569 115.402 6.63205 115.385C6.62842 115.368 6.62197 115.353 6.61308 115.339C6.60418 115.325 6.59302 115.314 6.58023 115.305C6.56743 115.296 6.55326 115.291 6.53851 115.288C6.52376 115.286 6.50872 115.286 6.49426 115.291C6.4798 115.295 6.4662 115.302 6.45423 115.312L5.15024 116.422C5.13508 116.435 5.12297 116.452 5.11499 116.471C5.107 116.491 5.1034 116.512 5.10451 116.534C5.10562 116.556 5.11141 116.576 5.12134 116.595C5.13127 116.613 5.14505 116.628 5.16141 116.639L6.5169 117.529C6.54248 117.546 6.57276 117.551 6.60134 117.543Z" fill="#6C63FF"/>
<path d="M8.53611 118.292C8.5471 118.289 8.5576 118.284 8.56724 118.277C8.58 118.268 8.59111 118.257 8.59993 118.243C8.60875 118.229 8.6151 118.214 8.61864 118.197C8.62218 118.18 8.62282 118.163 8.62053 118.146C8.61824 118.129 8.61307 118.113 8.6053 118.098L6.75212 114.608C6.73637 114.579 6.71111 114.558 6.68189 114.55C6.65266 114.542 6.62184 114.548 6.59617 114.565C6.5705 114.583 6.55207 114.612 6.54491 114.646C6.53775 114.679 6.54245 114.714 6.55797 114.744L8.41114 118.234C8.42379 118.258 8.44275 118.276 8.46524 118.287C8.48773 118.297 8.51256 118.299 8.53611 118.292Z" fill="#6C63FF"/>
<path d="M178.41 142.391C178.272 142.472 178.131 142.552 177.992 142.631C174.402 144.687 171.53 145.856 167.601 147.136C167.269 142.893 166.949 135.436 166.638 130.813C166.556 129.613 166.474 128.606 166.395 127.895C166.374 127.517 166.307 127.145 166.195 126.789L166.208 127.895L166.242 130.813L166.44 147.501C161.553 148.982 156.532 149.811 151.479 149.971C151.215 149.979 150.956 149.984 150.706 149.989C150.618 149.992 150.531 149.994 150.445 149.994C150.161 149.997 149.879 149.999 149.595 149.999C144.27 150.004 138.964 149.267 133.794 147.805C133.905 143.607 134.016 136.232 134.123 130.813C134.146 129.754 134.166 128.767 134.189 127.895C134.232 126.032 134.278 124.688 134.321 124.238C134.283 124.318 134.253 124.403 134.232 124.491C134.022 125.613 133.878 126.751 133.803 127.895C133.723 128.767 133.644 129.754 133.564 130.813C133.141 136.443 132.701 144.099 132.246 147.344C129.541 146.498 126.887 145.453 124.3 144.213C122.937 143.562 121.597 142.86 120.282 142.107C120.532 140.233 120.794 138.133 121.062 135.954C121.271 134.265 121.487 132.529 121.707 130.813C122.048 128.163 133.628 99.5493 136.357 98.5472L136.425 98.5263L136.473 98.5498L141.12 96.9151L141.799 96.6757L142.256 96.5143L143.865 95.1113L144.739 94.3486L145.56 93.6328L147.164 92.2351L157.096 92.9352L159.03 98.2687L163.361 100.083L163.436 100.044L163.502 100.013L163.57 100.033C166.298 101.035 168.646 103.075 170.223 105.815C170.437 106.182 170.696 106.666 170.989 107.251C171.239 107.749 171.512 108.316 171.807 108.943C172.228 109.836 172.687 110.843 173.173 111.934C173.28 112.174 173.389 112.418 173.498 112.665C173.7 113.124 173.905 113.591 174.114 114.068C174.598 115.175 175.097 116.33 175.597 117.504C176.031 118.522 176.47 120.615 176.902 123.278C177.258 125.49 177.613 128.098 177.956 130.813C178.406 134.332 177.926 138.546 178.333 141.785C178.358 141.99 178.386 142.191 178.41 142.391Z" fill="#3F3D56"/>
<path d="M149.281 90.3205C155.66 90.3205 160.832 84.3962 160.832 77.0881C160.832 69.7801 155.66 63.8557 149.281 63.8557C142.901 63.8557 137.729 69.7801 137.729 77.0881C137.729 84.3962 142.901 90.3205 149.281 90.3205Z" fill="#FFB6B6"/>
<path opacity="0.2" d="M130.808 123.266L132.739 114.731L134.443 122.096L130.808 123.266Z" fill="black"/>
<path d="M182.187 117.705C181.496 128.606 182.212 133.406 178.399 142.394C174.93 144.339 171.316 145.926 167.601 147.136C167.215 147.261 166.828 147.383 166.44 147.501C161.553 148.982 156.532 149.811 151.479 149.971C151.215 149.979 150.956 149.984 150.706 149.989C150.618 149.992 150.531 149.994 150.445 149.994C150.161 149.997 149.879 149.999 149.595 149.999C144.27 150.004 138.964 149.267 133.794 147.805C133.276 147.659 132.76 147.506 132.246 147.344C129.541 146.498 126.887 145.453 124.3 144.213C122.937 143.562 121.597 142.86 120.282 142.107C119.985 141.936 119.687 141.764 119.394 141.587C117.887 138.552 117.031 134.861 117.013 130.425C118.056 122.783 179.883 111.114 182.187 117.705Z" fill="#2F2E41"/>
<path opacity="0.2" d="M182.185 119.572C182.221 118.897 182.26 118.2 182.306 117.474C180.002 110.883 118.175 122.552 117.132 130.194C117.134 130.895 117.161 131.575 117.205 132.239C119.73 124.696 178.467 113.605 182.185 119.572Z" fill="black"/>
<path d="M115.475 118.219L120.55 115.312L116.321 102.232L115.206 95.636C115.061 94.779 114.723 93.9805 114.224 93.3204C113.726 92.6603 113.085 92.1616 112.365 91.8742C111.645 91.5868 110.873 91.5208 110.124 91.6827C109.375 91.8446 108.677 92.2288 108.098 92.7969C107.241 93.6387 106.702 94.8291 106.597 96.117C106.491 97.4048 106.826 98.6893 107.532 99.6994L111.669 105.623L115.475 118.219Z" fill="#FFB6B6"/>
<path d="M120.55 112.89L113.783 116.766L118.918 135.197C119.287 136.52 119.948 137.712 120.837 138.657C121.727 139.602 122.814 140.267 123.994 140.589C125.449 140.986 126.976 140.842 128.354 140.177C129.733 139.513 130.891 138.363 131.66 136.894L145.277 110.158C146.242 108.316 146.54 106.114 146.107 104.024C145.674 101.933 144.545 100.12 142.96 98.97C142.108 98.3517 141.152 97.946 140.153 97.7791C139.155 97.6122 138.138 97.6879 137.167 98.0013C136.196 98.3148 135.293 98.8589 134.518 99.5982C133.743 100.338 133.112 101.256 132.667 102.293L124.356 122.579L120.55 112.89Z" fill="#3F3D56"/>
<path d="M47.6067 89.4074C54.6264 89.4074 60.3169 82.8889 60.3169 74.8479C60.3169 66.8069 54.6264 60.2883 47.6067 60.2883C40.5871 60.2883 34.8965 66.8069 34.8965 74.8479C34.8965 82.8889 40.5871 89.4074 47.6067 89.4074Z" fill="#A0616A"/>
<path d="M35.0491 64.8147C36.0826 63.2191 37.5679 62.0847 38.7041 60.5836C39.3275 59.76 39.8451 58.8268 40.546 58.0894C41.8481 56.7195 43.6691 56.1581 45.436 56.0883C47.3725 56.0313 49.2935 56.4974 51.0435 57.4487C52.7935 58.4001 54.3235 59.81 55.5095 61.5645C56.4331 60.9442 57.3566 60.3239 58.2802 59.7036C58.6451 60.8037 59.01 61.9038 59.3749 63.004C59.6744 62.7058 60.0563 62.5387 60.453 62.5324C60.8498 62.526 61.2357 62.6807 61.5423 62.9691C61.849 63.2575 62.0566 63.661 62.1283 64.108C62.2001 64.555 62.1314 65.0167 61.9343 65.4112C62.1541 64.6331 63.1612 64.4681 63.7164 64.9821C64.2716 65.4961 64.4203 66.4105 64.3297 67.2217C64.216 68.1115 63.8726 68.9421 63.3436 69.6066C62.8145 70.2711 62.1241 70.7392 61.361 70.9506C60.1558 71.2582 58.753 70.9351 57.7883 71.8181C57.0149 72.5259 56.7815 73.8149 55.9922 74.4994C55.0197 75.3428 53.6451 74.9528 52.4361 75.1392C50.321 75.4653 48.6463 77.9433 48.9005 80.3706C48.7091 79.6047 48.508 78.8166 48.0737 78.1945C47.6393 77.5723 46.9078 77.1515 46.2416 77.3803C45.1405 77.7584 44.9604 79.4776 45.2273 80.7584C45.935 84.1552 48.6174 89.6459 48.6174 89.6459C45.1345 91.2197 40.985 89.7315 38.2976 86.7452C35.6103 83.7588 34.2107 79.5301 33.6011 75.2985C33.0841 71.7101 33.1573 67.7355 35.0491 64.8147Z" fill="#2F2E41"/>
<path d="M163.757 84.3826C166.175 78.0319 164.805 72.1879 161.857 69.0877V69.0851C160.698 66.11 159.158 63.8142 157.395 63.2754C156.542 62.6481 155.715 61.9114 154.797 61.5366C154.37 61.3532 153.914 61.2709 153.458 61.2946C153.002 61.3183 152.555 61.4476 152.143 61.6746L151.675 61.5314C151.277 60.3679 150.812 60.3445 150.294 61.1097C148.298 60.0451 146.501 59.5688 144.901 59.5688C139.684 59.5688 136.598 64.6289 135.78 70.7458L140.141 72.0759L141.656 69.309L140.957 72.3258L143.363 73.0572C147.026 78.5208 142.643 91.1242 137.087 98.1365C138.409 97.7174 139.727 97.3634 141.038 97.0745L145.806 89.0679L142.852 96.3561C144.386 96.0984 146.342 96.3457 148.48 96.8428C149.201 95.7652 149.58 94.3284 149.207 93.0478C149.817 94.3984 150.237 95.8503 150.453 97.3504C154.965 98.6128 161.121 99.261 164.439 99.7399C167.119 98.7376 167.126 87.4177 163.757 84.3826Z" fill="#2F2E41"/>
<path d="M165.33 62.7804C167.101 67.3233 163.528 69.2774 160.254 69.2222C157.295 69.1723 154.781 66.7916 154.63 63.4069C154.557 61.7815 155.052 60.1897 156.004 58.9816C156.956 57.7735 158.288 57.0481 159.707 56.9651C162.661 56.792 164.124 59.6858 165.33 62.7804Z" fill="#2F2E41"/>
<path d="M83.1626 136.735L80.245 131.16L89.9458 122.73L93.9792 117.852C94.5032 117.218 95.1632 116.753 95.8933 116.503C96.6234 116.253 97.398 116.227 98.1397 116.427C98.8814 116.627 99.5641 117.047 100.12 117.644C100.675 118.242 101.085 118.996 101.306 119.831C101.635 121.068 101.53 122.404 101.016 123.555C100.501 124.706 99.6158 125.584 98.5471 126.002L92.2795 128.453L83.1626 136.735Z" fill="#A0616A"/>
<path d="M85.2713 136.551L80.7289 140.887L79.5042 142.056L79.361 142.191C79.0452 142.371 78.727 142.548 78.4066 142.722C77.4477 143.245 76.4767 143.743 75.4935 144.214C72.9066 145.453 70.2523 146.499 67.5473 147.345C67.0337 147.506 66.5179 147.66 65.9998 147.806C65.684 147.894 65.3658 147.983 65.0477 148.066C64.8477 148.121 64.6455 148.173 64.4433 148.222C64.1979 148.285 63.9525 148.347 63.707 148.404C63.4503 148.467 63.1935 148.527 62.9367 148.584C62.2458 147.831 61.6957 146.925 61.3199 145.921C60.9442 144.917 60.7505 143.835 60.7508 142.743C60.7508 142.673 60.7508 142.6 60.753 142.527L61.4824 121.097L61.8051 111.599C61.8548 109.451 62.6359 107.41 63.9815 105.913C65.327 104.416 67.1303 103.581 69.0061 103.587C69.2242 103.587 69.4401 103.6 69.6537 103.623C69.8082 103.853 69.9514 104.089 70.09 104.329C70.4672 104.969 70.9762 105.982 71.5761 107.252C71.8238 107.775 72.0851 108.343 72.36 108.944C72.5259 109.306 73.9575 114.423 75.3504 119.65L74.7369 125.108L73.628 134.947L78.1771 131.527L81.3811 129.117L81.7606 129.843L82.749 131.733L84.6578 135.377L85.2713 136.551Z" fill="#3F3D56"/>
<path d="M82.7808 130.426C82.7786 130.868 82.7695 131.303 82.749 131.733C82.7017 132.917 82.5817 134.097 82.39 135.262C82.0764 137.219 81.5169 139.114 80.7289 140.887C80.6244 141.124 80.5131 141.358 80.3995 141.587C80.1063 141.764 79.8086 141.936 79.511 142.108C79.461 142.137 79.411 142.165 79.361 142.191C78.0953 142.912 76.8062 143.586 75.4935 144.214C72.9066 145.453 70.2523 146.499 67.5472 147.345C67.0337 147.506 66.5179 147.66 65.9998 147.806C64.9886 148.092 63.9676 148.351 62.9367 148.584C58.7407 149.528 54.4744 150.002 50.1981 150C49.9141 150 49.6323 149.997 49.3483 149.995C49.2619 149.995 49.1756 149.992 49.087 149.99C48.837 149.984 48.578 149.979 48.3144 149.971C43.261 149.811 38.2406 148.982 33.3535 147.501C32.9649 147.384 32.5778 147.263 32.1923 147.137C28.4772 145.926 24.8635 144.339 21.3943 142.394C17.5813 133.406 18.2971 128.606 17.6063 117.705C19.0243 113.647 43.0131 116.513 61.4824 121.097C66.4952 122.341 71.0989 123.713 74.7368 125.108C78.4952 126.548 81.2198 128.01 82.2877 129.385C82.5373 129.669 82.7087 130.031 82.7808 130.426Z" fill="#2F2E41"/>
<path opacity="0.2" d="M17.6077 119.572C17.5724 118.897 17.5329 118.2 17.4869 117.474C19.7911 110.883 81.6185 122.552 82.6614 130.194C82.6586 130.895 82.6324 131.575 82.5884 132.239C80.0626 124.696 21.3258 113.605 17.6077 119.572Z" fill="black"/>
</g>
<defs>
<clipPath id="clip0_1_39">
<rect width="200" height="150" fill="white"/>
</clipPath>
</defs>
</svg>
